# xmcd
#
# Track frame offsets: 
#        150
#        35078
#        79604
#        93049
#        119209
#        144384
#        168326
#        185333
#        205321
#        249285
#        264103
#        282678
#        300409
#
# Disc length: 4245 seconds
#
# Revision: 0
# Processed by: cddbd v1.5.2PL0 Copyright (c) Steve Scherf et al.
# Submitted via: ExactAudioCopy v1.0b1
#
DISCID=af10930d
DTITLE=Real de Catorce - Recopilacion CD 1
DYEAR=2012
DGENRE=Blues
TTITLE0=El Lobo (En Vivo)
TTITLE1=Azul (En Vivo)
TTITLE2=Me Miraba a los Ojos
TTITLE3=Mujer Sucia
TTITLE4=Flores en la Ventana
TTITLE5=El Parias Blues
TTITLE6=Suena el Viento
TTITLE7=Al Rojo de la Tarde (En Vivo)
TTITLE8=Patios de Cristal (En Vivo)
TTITLE9=Llévate la Historia
TTITLE10=Dorina y Abel
TTITLE11=Contraley
TTITLE12=El Quinqué
EXTD=
EXTT0=
EXTT1=
EXTT2=
EXTT3=
EXTT4=
EXTT5=
EXTT6=
EXTT7=
EXTT8=
EXTT9=
EXTT10=
EXTT11=
EXTT12=
PLAYORDER=
